<svg xmlns="http://www.w3.org/2000/svg" viewBox="0 0 353.55 354.11"><defs><style>.cls-1{fill:#e50046;}.cls-2{fill:none;}.cls-3{fill:#fff;}</style></defs><title>indie-books-we-love</title><g id="Layer_2" data-name="Layer 2"><g id="Layer_1-2" data-name="Layer 1"><path class="cls-1" d="M176.78,329.81a153,153,0,0,0,153-153H23.74A153,153,0,0,0,176.78,329.81Z"/><path class="cls-1" d="M184.75,1.46A4.71,4.71,0,0,0,181.3,0a4.85,4.85,0,0,0-3.45,1.43l-1.46,1.46-1.46-1.5A4.71,4.71,0,0,0,171.48,0,4.85,4.85,0,0,0,168,1.43a4.71,4.71,0,0,0-1.43,3.45A4.85,4.85,0,0,0,168,8.32l8.36,8.36,8.36-8.36a4.68,4.68,0,0,0,1.43-3.41A4.85,4.85,0,0,0,184.75,1.46Z"/><path class="cls-1" d="M271.34,28.94a4.71,4.71,0,0,0-2.27-3,4.85,4.85,0,0,0-3.7-.49l-2,.54-.52-2a4.71,4.71,0,0,0-2.27-3,4.85,4.85,0,0,0-3.7-.49,4.71,4.71,0,0,0-3,2.27,4.85,4.85,0,0,0-.49,3.7l3.06,11.42,11.42-3.06a4.68,4.68,0,0,0,2.94-2.24A4.85,4.85,0,0,0,271.34,28.94Z"/><path class="cls-1" d="M332.1,92.32a4.85,4.85,0,0,0-3-2.27l-2-.54.57-2a4.71,4.71,0,0,0-.49-3.7,4.85,4.85,0,0,0-3-2.27,4.71,4.71,0,0,0-3.7.49,4.85,4.85,0,0,0-2.27,3L315.23,96.4l11.42,3.06a4.68,4.68,0,0,0,3.67-.47,4.84,4.84,0,0,0,2.27-3A4.71,4.71,0,0,0,332.1,92.32Z"/><path class="cls-1" d="M350.63,176.39l1.5-1.46a4.71,4.71,0,0,0,1.43-3.45,4.85,4.85,0,0,0-1.43-3.45,4.71,4.71,0,0,0-3.45-1.43,4.85,4.85,0,0,0-3.45,1.43l-8.36,8.36,8.36,8.36a4.68,4.68,0,0,0,3.41,1.43,4.84,4.84,0,0,0,3.45-1.43,4.71,4.71,0,0,0,1.43-3.45,4.85,4.85,0,0,0-1.43-3.45Z"/><path class="cls-1" d="M99,23.24A4.85,4.85,0,0,0,96,21a4.71,4.71,0,0,0-3.7.49,4.85,4.85,0,0,0-2.27,3l-.54,2-2-.57a4.71,4.71,0,0,0-3.7.49,4.85,4.85,0,0,0-2.27,3A4.71,4.71,0,0,0,82,33a4.85,4.85,0,0,0,3,2.27L96.4,38.32l3.06-11.42A4.68,4.68,0,0,0,99,23.24Z"/><path class="cls-1" d="M34.88,85.65a4.68,4.68,0,0,0-2.24-2.94,4.85,4.85,0,0,0-3.7-.49,4.71,4.71,0,0,0-3,2.27,4.85,4.85,0,0,0-.49,3.7l.54,2-2,.52A4.71,4.71,0,0,0,21,93a4.84,4.84,0,0,0-.49,3.7,4.71,4.71,0,0,0,2.27,3,4.85,4.85,0,0,0,3.7.49l11.42-3.06Z"/><path class="cls-1" d="M8.32,168.8a4.68,4.68,0,0,0-3.41-1.43,4.85,4.85,0,0,0-3.45,1.43A4.71,4.71,0,0,0,0,172.25a4.85,4.85,0,0,0,1.43,3.45l1.46,1.46-1.5,1.46A4.71,4.71,0,0,0,0,182.07a4.84,4.84,0,0,0,1.43,3.45,4.71,4.71,0,0,0,3.45,1.43,4.85,4.85,0,0,0,3.45-1.43l8.36-8.36Z"/><circle class="cls-2" cx="176.78" cy="176.78" r="62.51"/><path class="cls-3" d="M194.65,288.41a10.06,10.06,0,0,0-7.37-3.05,10.36,10.36,0,0,0-7.37,3.05l-3.13,3.13-3.13-3.2a10.06,10.06,0,0,0-7.37-3.05,10.36,10.36,0,0,0-7.37,3.05,10.06,10.06,0,0,0-3.05,7.37,10.36,10.36,0,0,0,3.05,7.37L176.78,321l17.88-17.88a10,10,0,0,0,3.05-7.3A10.36,10.36,0,0,0,194.65,288.41Z"/><polygon class="cls-3" points="137.61 288.69 140.87 295.31 148.18 296.37 142.89 301.52 144.14 308.8 137.61 305.36 131.08 308.8 132.32 301.52 127.04 296.37 134.34 295.31 137.61 288.69"/><polygon class="cls-3" points="214.13 288.69 217.4 295.31 224.7 296.37 219.42 301.52 220.66 308.8 214.13 305.36 207.6 308.8 208.85 301.52 203.56 296.37 210.87 295.31 214.13 288.69"/><polygon class="cls-1" points="28.85 137.48 176.25 179.56 177.64 174.4 28.85 137.48"/><polygon class="cls-1" points="44.06 100.53 175.55 179.33 178.22 174.7 44.06 100.53"/><polygon class="cls-1" points="68.31 68.78 174.93 178.93 178.71 175.15 68.31 68.78"/><polygon class="cls-1" points="99.96 44.39 174.44 178.38 179.07 175.7 99.96 44.39"/><polygon class="cls-1" points="136.84 29.02 174.1 177.72 179.27 176.33 136.84 29.02"/><polygon class="cls-1" points="176.45 23.72 173.95 176.99 179.3 176.99 176.45 23.72"/><polygon class="cls-1" points="216.07 28.85 173.99 176.25 179.16 177.64 216.07 28.85"/><polygon class="cls-1" points="253.02 44.06 174.22 175.55 178.85 178.22 253.02 44.06"/><polygon class="cls-1" points="284.77 68.31 174.63 174.93 178.41 178.71 284.77 68.31"/><polygon class="cls-1" points="309.16 99.96 175.18 174.44 177.85 179.07 309.16 99.96"/><polygon class="cls-1" points="324.53 136.84 175.84 174.1 177.22 179.27 324.53 136.84"/><path class="cls-1" d="M237.62,102.77c-5.47-3.3-33.16-17.58-60.85,11.53-27.69-29.11-55.37-14.82-60.85-11.53a2,2,0,0,0-1,1.75v59.27a2.07,2.07,0,0,0,2.05,2c50.55.83,59.77,32.1,59.77,32.1s9.22-31.28,59.77-32.1a2.07,2.07,0,0,0,2.05-2V104.52A2,2,0,0,0,237.62,102.77ZM211.7,147.07,176.78,182l-34.93-34.93a20.25,20.25,0,0,1-6-14.41,19.66,19.66,0,0,1,6-14.41,20.25,20.25,0,0,1,14.41-6,19.66,19.66,0,0,1,14.41,6l6.11,6.26,6.11-6.11a20.25,20.25,0,0,1,14.41-6,19.66,19.66,0,0,1,14.41,6,20.25,20.25,0,0,1,6,14.41A19.57,19.57,0,0,1,211.7,147.07Z"/><path class="cls-3" d="M211.7,147.07,176.78,182l-34.93-34.93a20.25,20.25,0,0,1-6-14.41,19.66,19.66,0,0,1,6-14.41,20.25,20.25,0,0,1,14.41-6,19.66,19.66,0,0,1,14.41,6l6.11,6.26,6.11-6.11a20.25,20.25,0,0,1,14.41-6,19.66,19.66,0,0,1,14.41,6,20.25,20.25,0,0,1,6,14.41A19.57,19.57,0,0,1,211.7,147.07Z"/><path class="cls-3" d="M67.43,244.54H49.25V214.64h3.31v27H67.43Z"/><path class="cls-3" d="M67.29,233A12.19,12.19,0,1,1,79.48,245.1,11.87,11.87,0,0,1,67.29,233Zm21.07,0c0-5.24-3.68-9.11-8.88-9.11A8.72,8.72,0,0,0,70.6,233c0,5.24,3.68,9.11,8.88,9.11S88.36,238.29,88.36,233Z"/><path class="cls-3" d="M114.36,221.82l-10.58,22.73h-1.47L91.63,221.82l.14-.28h3.36L103,239.34l8.19-17.81h3Z"/><path class="cls-3" d="M116.85,234a8.48,8.48,0,0,0,8.7,8.14c2.67,0,6.12-1.15,8-3.5h.28l2,1.66v.28c-2.3,3.08-6.63,4.51-10.12,4.51-6.21,0-12.15-4.32-12.15-12,0-6.95,5-12.15,11.55-12.15a11.08,11.08,0,0,1,7.91,3.08,11.84,11.84,0,0,1,3.45,8.51,10,10,0,0,1-.09,1.43Zm.09-2.94h16.15a8.6,8.6,0,0,0-2.21-4.79,7.65,7.65,0,0,0-5.84-2.35A7.8,7.8,0,0,0,116.94,231.06Z"/><path class="cls-3" d="M163.42,244.13l-.23.41h-5l-6.4-12h-6.44v12h-5.11V214.64h12c7.18,0,11,3.4,11,9.06,0,4.19-2.35,7-6.35,8.24Zm-18.08-15.37h7.36c3.31,0,5.34-2,5.34-4.92S156,219,152.7,219h-7.36Z"/><path class="cls-3" d="M168.89,234.28a7.2,7.2,0,0,0,7.55,6.81,9.66,9.66,0,0,0,7.18-3H184l2.53,2.3v.37c-2.44,3.08-6.72,4.37-10.26,4.37-6.67,0-12.38-4.55-12.38-12,0-6.95,5-12.1,11.87-12.1a11.43,11.43,0,0,1,8.19,3.17,11.75,11.75,0,0,1,3.4,8.51,7.73,7.73,0,0,1-.14,1.61Zm0-3.45h13.48a6.92,6.92,0,0,0-1.84-4,6.91,6.91,0,0,0-11.64,4Z"/><path class="cls-3" d="M209.39,230.51v14h-4.32v-2.62a10.79,10.79,0,0,1-7.64,3.17c-5.38,0-9-2.94-9-7.41,0-4.65,4-7.77,9.85-7.77a16.76,16.76,0,0,1,6.44,1.43v-1.52c0-2.9-2.48-4.88-6-4.88a10.91,10.91,0,0,0-6.49,2.3h-.37L190,224.44v-.37a15.14,15.14,0,0,1,9.16-3.08C205.25,221,209.39,224.07,209.39,230.51Zm-4.65,5.89,0-.28V235a13.89,13.89,0,0,0-5.94-1.56c-3.31,0-5.47,1.7-5.47,4.19,0,2.3,2,3.82,5.06,3.82C201.57,241.42,204.65,239.39,204.74,236.4Z"/><path class="cls-3" d="M236.35,213.44v31.1h-4.51V241.6a10.5,10.5,0,0,1-8,3.5c-6.81,0-11.59-5.34-11.59-12.05S217.07,221,223.88,221a11.22,11.22,0,0,1,7.45,2.71v-10l4.65-.55Zm-4.6,19.6c0-5-3.31-7.68-7.18-7.68-4.42,0-7.27,3.45-7.27,7.68s2.85,7.68,7.27,7.68C228.48,240.73,231.75,238.06,231.75,233Z"/><path class="cls-3" d="M241.23,221.54h5v23h-5Z"/><path class="cls-3" d="M272.52,230.69v13.85h-5.06V231.11c0-3.5-2.07-5.8-5.57-5.8a5.49,5.49,0,0,0-5.75,5.8v13.43h-5.06v-23h4.42v3A9.09,9.09,0,0,1,263,221C268.79,221,272.52,225,272.52,230.69Z"/><path class="cls-3" d="M298.7,221.54V241c0,7.59-5.47,11-11.87,11A13.55,13.55,0,0,1,276,247.26v-.41l2.49-2.58h.37a9.84,9.84,0,0,0,8,3.77c4,0,7.13-2,7.13-6.4V239.9a10.87,10.87,0,0,1-7.41,2.76c-6.44,0-11.13-4.69-11.13-10.86S280.11,221,286.6,221a10.78,10.78,0,0,1,7.78,3.08v-2.53Zm-4.46,10.31a6.9,6.9,0,1,0-6.9,6.81A6.62,6.62,0,0,0,294.24,231.85Z"/><path class="cls-3" d="M246.72,214.5a1.69,1.69,0,0,0-1.24-.51,1.74,1.74,0,0,0-1.24.51l-.53.53-.53-.54A1.69,1.69,0,0,0,242,214a1.74,1.74,0,0,0-1.24.51,1.69,1.69,0,0,0-.51,1.24,1.74,1.74,0,0,0,.51,1.24l3,3,3-3a1.68,1.68,0,0,0,.51-1.23A1.74,1.74,0,0,0,246.72,214.5Z"/><path class="cls-1" d="M30.68,234l-19,7.12-1.71-4.57,19-7.12Z"/><path class="cls-1" d="M42.26,258l-18,9.54-1.42-2.68,5.88-14.77L18.06,255.7l-2.26-4.28,18-9.49,1.42,2.68-5.89,14.74L40,253.69Z"/><path class="cls-1" d="M50.57,286.6C45.71,290.33,40,289.54,36,284.33l-5.4-7,16.11-12.37,5.4,7C56.09,277.17,55.38,282.91,50.57,286.6Zm-3.05-3.92c3-2.34,3.44-5.63,1.3-8.41l-2.34-3-9.76,7.5,2.34,3C41.19,284.55,44.47,285,47.52,282.68Z"/><path class="cls-1" d="M67.21,289,52.8,303.36l-3.43-3.46,14.41-14.31Z"/><path class="cls-1" d="M74.72,301.13l-2.64,3.29,6,4.8-2.38,3-6-4.8L67,310.74,74.83,317l-2.5,3.12-11.61-9.3L73.41,295,85,304.21l-2.5,3.12Z"/><path class="cls-1" d="M108.78,334.5c-1.54,3.11-5.18,3.78-9.19,1.79l-8.12-4,9-18.2,7.76,3.84c3.78,1.87,5.19,4.87,3.73,7.81a4.58,4.58,0,0,1-4.25,2.6A5.36,5.36,0,0,1,108.78,334.5Zm-4.08-2.61c.69-1.4,0-2.88-1.65-3.71l-3.3-1.64-2.3,4.65,3.11,1.54C102.46,333.68,104,333.38,104.71,331.89Zm1.34-11-2.8-1.39-2.11,4.26,2.8,1.39c1.54.76,2.89.42,3.55-.89S107.62,321.65,106,320.88Z"/><path class="cls-1" d="M117.52,333.37c1.75-5.77,7.67-8.68,13.74-6.84s9.34,7.54,7.59,13.31-7.67,8.68-13.71,6.85S115.77,339.14,117.52,333.37Zm16.57,5a6.16,6.16,0,1,0-7.67,4.07A6,6,0,0,0,134.09,338.4Z"/><path class="cls-1" d="M146.16,341.37c.7-6,6-9.9,12.3-9.17S169,338,168.29,343.95s-6,9.9-12.27,9.17S145.46,347.36,146.16,341.37Zm17.19,2a6.16,6.16,0,1,0-6.82,5.37A6,6,0,0,0,163.36,343.37Z"/><path class="cls-1" d="M195.41,352.89l-.2.39-5.18.24-6.63-7.95L182,347.36l.31,6.52-4.87.23-1-20.29,4.87-.23.39,8.27,6.86-8.61,5.31-.25.24.36-7.3,9.17Z"/><path class="cls-1" d="M201.6,349.11l-.07-.37,1.84-3.19.34-.07a8.23,8.23,0,0,0,6,1.57c2-.38,3-1.41,2.81-2.58-.33-1.69-2.3-1.53-4.9-1.82-2.9-.33-6.54-1.22-7.25-4.93-.67-3.47,1.93-6.48,6.38-7.34a10.09,10.09,0,0,1,8.07,1.56l.07.34-1.84,3.16-.34.06a6.87,6.87,0,0,0-5.15-1.27c-1.6.31-2.57,1.2-2.36,2.3.25,1.32,1.86,1.55,3.59,1.79,3.61.42,7.77.7,8.64,5.18.75,3.9-2.36,6.73-6.66,7.55A11.19,11.19,0,0,1,201.6,349.11Z"/><path class="cls-1" d="M246,318.44l.34,21.46-.79.3-11.4-13.9.86,17.95-.79.3-14.14-16.16,0-.18,1.55-.59,11.83,13.8-.89-18,.79-.3,11.51,14-.42-18.28,1.4-.54Z"/><path class="cls-1" d="M254.3,314.84l4.07,6.81,7.89-4.71.72,1.21-7.89,4.71,4.19,7,9.92-5.93.72,1.21-11.29,6.75-10.42-17.44,11.29-6.75.72,1.21Z"/><path class="cls-1" d="M301.8,302.54l-9.9,9-13.69-15,3.6-3.29,11,12.05,6.3-5.75Z"/><path class="cls-1" d="M299.14,291c-4.67-3.82-5.11-10.39-1.1-15.3s10.52-5.77,15.2-2,5.11,10.39,1.12,15.28S303.82,294.8,299.14,291Zm11-13.41a6.16,6.16,0,1,0,.85,8.64A6,6,0,0,0,310.1,277.57Z"/><path class="cls-1" d="M318.49,245.79l12.73,17.87-1.43,2.49-21.85-2-.22-.38,2.49-4.34,14,1.84L315.66,250l2.4-4.17Z"/><path class="cls-1" d="M326,236.89l3.93,1.53,2.78-7.17,3.55,1.38-2.78,7.17,4,1.55,3.62-9.32,3.73,1.45-5.38,13.87L320.55,240l5.36-13.81,3.73,1.45Z"/><polygon class="cls-1" points="339.1 123.6 341.6 129.39 347.79 130.61 343.05 134.78 343.8 141.04 338.38 137.83 332.65 140.48 334.03 134.32 329.74 129.7 336.02 129.11 339.1 123.6"/><polygon class="cls-1" points="290.76 49.57 295.82 53.33 301.79 51.29 299.78 57.27 303.56 62.32 297.25 62.25 293.62 67.41 291.74 61.38 285.71 59.52 290.86 55.87 290.76 49.57"/><polygon class="cls-1" points="211.89 9.62 218.15 10.35 222.3 5.6 223.55 11.78 229.34 14.26 223.85 17.36 223.28 23.64 218.64 19.36 212.49 20.77 215.12 15.03 211.89 9.62"/><polygon class="cls-1" points="123.6 14.46 129.39 11.96 130.61 5.77 134.78 10.5 141.04 9.75 137.83 15.18 140.48 20.9 134.32 19.52 129.7 23.81 129.11 17.53 123.6 14.46"/><polygon class="cls-1" points="49.57 62.79 53.33 57.73 51.29 51.76 57.27 53.78 62.32 49.99 62.25 56.3 67.41 59.93 61.38 61.82 59.52 67.84 55.87 62.7 49.57 62.79"/><polygon class="cls-1" points="9.62 141.67 10.35 135.4 5.6 131.25 11.78 130.01 14.26 124.21 17.36 129.71 23.64 130.27 19.36 134.91 20.77 141.06 15.03 138.43 9.62 141.67"/></g></g></svg>